# xmcd
#
# Track frame offsets:
#	150
#	20905
#	33647
#	48247
#	61655
#	77982
#	91337
#	108687
#	128022
#	141622
#	156297
#	172637
#	189737
#	202187
#	218337
#	237762
#	255715
#	273342
#	285977
#	299745
#
# Disc length: 4191 seconds
#
# Revision: 4
# Processed by: cddbd v1.5.1PL0 Copyright (c) Steve Scherf et al.
# Submitted via: audiograbber 1.83.01
#
DISCID=2c105d14
DTITLE=Various Artist - Boot Scootin' 2
DYEAR=1900
DGENRE=Country
TTITLE0=John Michael Montgomery - Life's A Dance
TTITLE1=Clay Walker - Only On Days That End In "Y"
TTITLE2=Mary-Chapin Carpenter - I Feel Lucky
TTITLE3=Sammy Kershaw - Cadillac Style
TTITLE4=Tracy Byrd - Big Love
TTITLE5=Johnny Paycheck - Slide Off Your Satin Sheets
TTITLE6=Tractors - Baby Likes To Rock It
TTITLE7=Brooks and Dunn - Neon Moon
TTITLE8=Blackhawk - Big Guitar
TTITLE9=Sawyer Brown - Some Girls Do
TTITLE10=George Strait - Adalida [Remix Version]
TTITLE11=Kentucky Headhunters - Walk Softly On This Heart Of Mine
TTITLE12=Ty England - Should've Asked Her Faster
TTITLE13=Alabama - TLC ASAP
TTITLE14=Hal Ketchum - Hang In There Superman [Radio Edit]
TTITLE15=Rodney Crowell - What Kind Of Love
TTITLE16=David Kersh - Another You
TTITLE17=Exile - Super Love
TTITLE18=Brother Phelps - Anyway The Wind Blows [Cold Start]
TTITLE19=Confederate Railroad - Trashy Women [Dance Mix]
EXTD=
EXTT0=
EXTT1=
EXTT2=
EXTT3=
EXTT4=
EXTT5=
EXTT6=
EXTT7=
EXTT8=
EXTT9=
EXTT10=
EXTT11=
EXTT12=
EXTT13=
EXTT14=
EXTT15=
EXTT16=
EXTT17=
EXTT18=
EXTT19=
PLAYORDER=
